<svg version="1.1" viewBox="0 0 1000 1000" width="1280" height="1280" xmlns="http://www.w3.org/2000/svg">
<path transform="translate(483,45)" d="m0 0h55l32 3 30 5 26 6 28 8 27 10 27 12 27 14 23 14 16 11 19 14 13 11 7 6-6 7-126 126-4-1-13-10-19-12-23-12-19-8-26-8-24-5-16-2-13-1h-27l-29 3-24 5-20 6-21 8-23 11-21 13-19 14-11 10-8 7-9 9-18 22-14 21-10 18-8 17-7 19-6 20-5 24-3 29v28l3 29 5 24 6 20 8 21 11 23 11 18 10 14 13 16 14 15 13 12 17 13 15 10 21 12 17 8 25 9 22 6 23 4 22 2h29l25-2 26-4 24-6 21-7 16-7 16-8 16-10 13-10 14-12 9-9 9-11 11-15 9-16 9-19 9-27 3-13h-245v-178h427l4 16 5 32 2 26v25l-2 36-4 33-5 28-6 26-9 30-10 27-9 20-8 16-10 19-14 22-10 14-10 13-9 11-10 11-7 8-15 15-8 7-14 12-20 15-21 14-17 10-16 9-26 12-26 10-28 9-29 7-35 6-33 3h-55l-32-3-35-6-29-7-29-9-28-11-28-13-24-13-22-14-17-12-13-10-11-9-10-9-8-7-27-27-9-11-8-9-15-20-16-24-9-15-13-24-12-26-11-29-8-26-6-24-5-26-4-33-1-13v-56l3-32 5-30 6-27 9-30 10-27 12-27 14-27 13-21 13-19 13-17 9-11 12-14 32-32 11-9 13-11 19-14 15-10 25-15 27-14 25-11 34-12 29-8 35-7 33-4z" fill="#34A853"/>
<path transform="translate(483,45)" d="m0 0h55l32 3 30 5 26 6 28 8 27 10 27 12 27 14 23 14 16 11 19 14 13 11 7 6-6 7-126 126-4-1-13-10-19-12-23-12-19-8-26-8-24-5-16-2-13-1h-27l-29 3-24 5-20 6-21 8-23 11-21 13-19 14-11 10-8 7-9 9-18 22-14 21-10 18-8 17-7 19-6 20-5 24-3 29v28l3 29 5 24 5 18-47 36-60 46-47 36-3-4-11-25-10-27-9-30-8-37-4-29-2-23v-56l3-32 5-30 6-27 9-30 10-27 12-27 14-27 13-21 13-19 13-17 9-11 12-14 32-32 11-9 13-11 19-14 15-10 25-15 27-14 25-11 34-12 29-8 35-7 33-4z" fill="#EA4335"/>
<path transform="translate(511,419)" d="m0 0h427l4 16 5 32 2 26v25l-2 36-4 33-5 28-6 26-9 30-10 27-9 20-8 16-10 19-14 22-10 14-10 13-9 11-10 11-7 8-15 15-5-2-16-13-16-12-14-11-18-14-26-20-36-28-13-10-3-2 1-3 13-9 11-9 12-11 11-12 12-16 9-15 11-23 9-27 3-13h-245z" fill="#4285F4"/>
<path transform="translate(99,300)" d="m0 0 7 4 11 9 16 12 18 14 16 12 18 14 16 12 18 14 16 12 18 14 1 2-6 21-4 20-3 29v28l3 29 5 24 5 18-47 36-60 46-47 36-3-4-11-25-10-27-9-30-8-37-4-29-2-23v-56l3-32 5-30 6-27 9-30 10-27 12-27z" fill="#FBBC05"/>
</svg>
