<svg width="25" height="24" viewBox="0 0 25 24" fill="none" xmlns="http://www.w3.org/2000/svg">
<path d="M21 18C21 19.93 19.43 21.5 17.5 21.5H15.03V19C15.03 17.62 13.91 16.5 12.53 16.5C11.15 16.5 10.03 17.62 10.03 19V21.5H7.5C5.57 21.5 4 19.93 4 18V13.3501C4.8 13.7601 5.68999 14 6.48999 14C7.61999 14 8.72 13.53 9.5 12.78C10.27 13.53 11.37 14 12.5 14C13.63 14 14.73 13.53 15.5 12.78C16.28 13.53 17.38 14 18.51 14C19.31 14 20.2 13.7601 21 13.3501V18ZM21.974 8.84204L20.886 5.5769C20.273 3.7359 18.557 2.5 16.617 2.5H8.383C6.443 2.5 4.72801 3.7359 4.11401 5.5769L3.026 8.84204C3.009 8.89404 3 8.94598 3 9.00098C3.003 10.931 4.56799 12.5 6.48999 12.5C7.67799 12.5 8.81801 11.9189 9.49701 11.0339C10.17 11.9189 11.309 12.5 12.5 12.5C13.691 12.5 14.83 11.9189 15.503 11.0339C16.182 11.9189 17.323 12.5 18.51 12.5C20.431 12.5 21.997 10.931 22 9.00098C22 8.94598 21.991 8.89404 21.974 8.84204Z" fill="#0B0C17"/>
</svg>
